HIERARCHY
ROOT Hips
{
	OFFSET 0.000000 0.000000 0.000000
	CHANNELS 6 Xposition Yposition Zposition Zrotation Yrotation Xrotation 
	JOINT LowerBack
	{
		OFFSET 0.000000 0.000000 0.000000
		CHANNELS 3 Zrotation Yrotation Xrotation
		JOINT Spine
		{
			OFFSET 0.028270 2.035590 -0.193380
			CHANNELS 3 Zrotation Yrotation Xrotation
			JOINT Spine1
			{
				OFFSET 0.056720 2.048850 -0.042750
				CHANNELS 3 Zrotation Yrotation Xrotation
				JOINT Neck
				{
					OFFSET 0.000000 0.000000 0.000000
					CHANNELS 3 Zrotation Yrotation Xrotation
					JOINT Neck1
					{
						OFFSET -0.054170 1.746240 0.172020
						CHANNELS 3 Zrotation Yrotation Xrotation
						JOINT Head
						{
							OFFSET 0.104070 1.761360 -0.123970
							CHANNELS 3 Zrotation Yrotation Xrotation
							End Site
							{
								OFFSET 0.000000 0.000000 0.000000
							}
						}
					}
				}
				JOINT LeftShoulder
				{
					OFFSET 0.000000 0.000000 0.000000
					CHANNELS 3 Zrotation Yrotation Xrotation
					JOINT LeftArm
					{
						OFFSET 3.362410 1.200890 -0.311210
						CHANNELS 3 Zrotation Yrotation Xrotation
						JOINT LeftForeArm
						{
							OFFSET 4.983000 -0.000000 -0.000000
							CHANNELS 3 Zrotation Yrotation Xrotation
							JOINT LeftHand
							{
								OFFSET 3.483560 -0.000000 -0.000000
								CHANNELS 3 Zrotation Yrotation Xrotation
								JOINT LeftFingerBase
								{
									OFFSET 0.000000 0.000000 0.000000
									CHANNELS 3 Zrotation Yrotation Xrotation
									JOINT LeftHandIndex1
									{
										OFFSET 0.715260 -0.000000 -0.000000
										CHANNELS 3 Zrotation Yrotation Xrotation
										End Site
										{
											OFFSET 0.000000 0.000000 0.000000
										}
									}
								}
								JOINT LThumb
								{
									OFFSET 0.000000 0.000000 0.000000
									CHANNELS 3 Zrotation Yrotation Xrotation
									End Site
									{
										OFFSET 0.000000 0.000000 0.000000
									}
								}
							}
						}
					}
				}
				JOINT RightShoulder
				{
					OFFSET 0.000000 0.000000 0.000000
					CHANNELS 3 Zrotation Yrotation Xrotation
					JOINT RightArm
					{
						OFFSET -3.136600 1.374050 -0.404650
						CHANNELS 3 Zrotation Yrotation Xrotation
						JOINT RightForeArm
						{
							OFFSET -5.241900 -0.000000 -0.000000
							CHANNELS 3 Zrotation Yrotation Xrotation
							JOINT RightHand
							{
								OFFSET -3.444170 -0.000000 -0.000000
								CHANNELS 3 Zrotation Yrotation Xrotation
								JOINT RightFingerBase
								{
									OFFSET 0.000000 0.000000 0.000000
									CHANNELS 3 Zrotation Yrotation Xrotation
									JOINT RightHandIndex1
									{
										OFFSET -0.622530 -0.000000 -0.000000
										CHANNELS 3 Zrotation Yrotation Xrotation
										End Site
										{
											OFFSET 0.000000 0.000000 0.000000
										}
									}
								}
								JOINT RThumb
								{
									OFFSET 0.000000 0.000000 0.000000
									CHANNELS 3 Zrotation Yrotation Xrotation
									End Site
									{
										OFFSET 0.000000 0.000000 0.000000
									}
								}
							}
						}
					}
				}
			}
		}
	}
}
}
MOTION
Frames: 7
Frame Time: 0.008333
13.452975 16.945071 1.590788 -176.032894 -81.984226 -173.490414 4.738735 -7.328204 -7.454382 1.192486 -7.923131 -4.035169 -4.731888 -8.018498 1.497760 9.093758 -24.155436 -9.947701 -2.615137 -0.178930 -0.484815 0.000000 0.000000 0.000000 -1.239783 -2.690268 0.630657 -58.761416 -9.349077 11.999108 -2.258779 -50.375864 -0.016976 5.373484 -0.948222 -0.054629 -0.086444 0.225765 -0.000000 0.000000 0.000000 0.000000 0.000000 0.000000 0.000000 14.148899 -24.389272 0.259642 53.450848 -6.689697 6.726479 2.339033 52.569878 0.008041 3.452769 2.357056 0.071620 0.084047 -0.058941 -0.000000 0.000000 0.000000 0.000000 0.000000 0.000000 0.000000 
13.263640 16.943022 1.593371 -171.243705 -81.814934 -178.374439 5.402767 -7.195816 -7.396028 1.318726 -7.863817 -4.038665 -4.760412 -7.959238 1.464533 9.119147 -24.028494 -9.947745 -2.644749 -0.181828 -0.485695 0.000000 0.000000 0.000000 -1.462056 -2.564643 0.606411 -59.605949 -8.983482 11.865204 -2.272438 -49.890947 -0.016858 5.403420 -0.977759 -0.056163 -0.085005 0.222728 -0.000000 0.000000 0.000000 0.000000 0.000000 0.000000 0.000000 14.251752 -24.228068 0.273616 53.162129 -6.194965 6.545010 2.367022 52.209145 0.008048 3.348145 2.383756 0.070121 0.085825 -0.058940 -0.000000 0.000000 0.000000 0.000000 0.000000 0.000000 0.000000 
13.078785 16.942845 1.593903 -166.980237 -81.655056 177.264724 5.980068 -7.080069 -7.317027 1.425971 -7.811811 -4.034650 -4.797437 -7.907330 1.433598 9.176338 -23.874091 -9.946475 -2.676797 -0.184877 -0.486402 0.000000 0.000000 0.000000 -1.629679 -2.443036 0.582510 -60.468363 -8.593067 11.704582 -2.283413 -49.372859 -0.016745 5.441527 -1.000374 -0.057600 -0.083696 0.219314 -0.000000 0.000000 0.000000 0.000000 0.000000 0.000000 0.000000 14.392723 -24.046217 0.287025 52.973411 -5.665832 6.327172 2.398858 51.768970 0.008061 3.249494 2.412172 0.068722 0.087476 -0.058924 -0.000000 0.000000 0.000000 0.000000 0.000000 0.000000 0.000000 
12.898074 16.944634 1.593434 -162.886125 -81.497894 173.081267 6.526501 -6.976123 -7.222462 1.525762 -7.767526 -4.024984 -4.842645 -7.863051 1.408004 9.255895 -23.701540 -9.949739 -2.710151 -0.187921 -0.488617 0.000000 0.000000 0.000000 -1.773247 -2.303174 0.561674 -61.332272 -8.191811 11.521880 -2.292479 -48.837196 -0.016638 5.482849 -1.006170 -0.058137 -0.082474 0.215618 -0.000000 0.000000 0.000000 0.000000 0.000000 0.000000 0.000000 14.560206 -23.852420 0.299510 52.865399 -5.071966 6.114627 2.434192 51.247922 0.008075 3.134604 2.447552 0.067125 0.089188 -0.058945 -0.000000 0.000000 0.000000 0.000000 0.000000 0.000000 0.000000 
12.722254 16.948357 1.590366 -159.461633 -81.342633 169.572695 6.958928 -6.882502 -7.117118 1.598480 -7.720845 -4.010068 -4.897528 -7.815931 1.385291 9.366380 -23.503870 -9.951422 -2.746385 -0.191161 -0.490423 0.000000 0.000000 0.000000 -1.867619 -2.165973 0.541100 -62.185307 -7.750807 11.315031 -2.298331 -48.297708 -0.016508 5.529370 -1.006438 -0.058476 -0.081255 0.211449 -0.000000 0.000000 0.000000 0.000000 0.000000 0.000000 0.000000 14.767348 -23.635263 0.311920 52.858193 -4.445487 5.880038 2.473561 50.651464 0.008117 3.021676 2.494135 0.065827 0.090865 -0.059063 -0.000000 0.000000 0.000000 0.000000 0.000000 0.000000 0.000000 
12.551046 16.954136 1.585108 -156.521521 -81.193930 166.558604 7.304387 -6.795601 -7.005860 1.649383 -7.671180 -3.991840 -4.962816 -7.765310 1.364254 9.500171 -23.274711 -9.949453 -2.786120 -0.194692 -0.491233 0.000000 0.000000 0.000000 -1.930095 -2.027998 0.522975 -63.014049 -7.268027 11.087571 -2.301419 -47.767496 -0.016355 5.577956 -0.999538 -0.058417 -0.079973 0.206847 -0.000000 0.000000 0.000000 0.000000 0.000000 0.000000 0.000000 15.006166 -23.386644 0.323907 52.945934 -3.795788 5.625683 2.516411 49.984320 0.008190 2.904534 2.555778 0.064732 0.092530 -0.059319 -0.000000 0.000000 0.000000 0.000000 0.000000 0.000000 0.000000 
12.384250 16.962105 1.577500 -154.079521 -81.060536 164.053769 7.556135 -6.713995 -6.892151 1.677076 -7.616785 -3.970249 -5.037596 -7.709419 1.347843 9.657621 -23.029696 -9.947120 -2.828924 -0.198436 -0.491908 0.000000 0.000000 0.000000 -1.967942 -1.882764 0.506529 -63.806902 -6.749985 10.850052 -2.302174 -47.251224 -0.016161 5.627417 -0.987399 -0.058161 -0.078616 0.201784 -0.000000 0.000000 0.000000 0.000000 0.000000 0.000000 0.000000 15.281046 -23.122633 0.334354 53.117327 -3.105901 5.374177 2.562600 49.239946 0.008298 2.767638 2.638364 0.063538 0.094343 -0.059733 -0.000000 0.000000 0.000000 0.000000 0.000000 0.000000 0.000000 
